<svg width="60" height="60" viewBox="0 0 60 60" fill="none" xmlns="http://www.w3.org/2000/svg">
<g id="ASIN5-01 1">
<path id="Vector" d="M53.1264 53.5579C49.2666 53.5633 45.4068 53.5249 41.5464 53.5405C40.7064 53.5405 40.2654 53.3005 39.8531 52.5163C35.013 43.4515 30.1194 34.4245 25.2504 25.3885C25.194 25.2967 25.1124 25.2229 24.8808 24.9631C20.6442 34.4707 16.4423 43.8667 12.1331 53.5201C10.7783 53.5201 9.15775 53.5483 7.54495 53.4919C7.31575 53.4841 6.92875 53.0971 6.91075 52.8577C6.87235 52.4065 6.93895 51.8821 7.13995 51.4777C12.0768 41.3993 17.0365 31.3335 22.0194 21.2803C22.368 20.5795 22.2936 20.1007 21.879 19.4761C20.2866 17.0431 18.7379 14.5849 17.1809 12.1237C16.9871 11.8207 16.8144 11.5069 16.5468 11.0743C17.0268 11.0359 17.367 11.0005 17.7162 11.0005C21.4362 10.9903 25.1604 11.0281 28.8798 10.9723C29.7918 10.9543 30.243 11.3035 30.6582 12.0781C35.9382 21.9781 41.124 31.9381 46.6224 41.7229C46.9253 42.2648 47.2578 42.7896 47.6184 43.2949L47.6262 43.3021L53.1264 53.5579Z" fill="white"/>
</g>
</svg>
