<svg width="41" height="40" viewBox="0 0 41 40" fill="none" xmlns="http://www.w3.org/2000/svg">
<path d="M12.5 33.6H10.9L11.86 32.32C12.5 31.44 12.9 30.32 13.14 28.96C9.14 27.12 6.9 23.68 6.9 19.2C6.9 12.32 12.1 8 20.5 8C28.9 8 34.1 12.32 34.1 19.2C34.1 26.24 28.98 30.4 20.5 30.4H19.94C18.66 31.92 16.42 33.6 12.5 33.6ZM20.5 9.6C12.98 9.6 8.5 13.2 8.5 19.2C8.5 24.32 11.62 26.72 14.26 27.76L14.82 28L14.74 28.64C14.58 29.92 14.34 31.04 13.86 32C16.5 31.68 18.02 30.32 18.9 29.2L19.14 28.88H20.5C31.3 28.88 32.5 22.16 32.5 19.28C32.5 13.2 28.02 9.6 20.5 9.6Z" fill="#292D32"/>
</svg>
