<svg width="32" height="32" viewBox="0 0 32 32" fill="none" xmlns="http://www.w3.org/2000/svg">
<path d="M4 7C4.79565 7 5.55871 6.68393 6.12132 6.12132C6.68393 5.55871 7 4.79565 7 4C7 3.20435 6.68393 2.44129 6.12132 1.87868C5.55871 1.31607 4.79565 1 4 1C3.20435 1 2.44129 1.31607 1.87868 1.87868C1.31607 2.44129 1 3.20435 1 4C1 4.79565 1.31607 5.55871 1.87868 6.12132C2.44129 6.68393 3.20435 7 4 7ZM5.5 29.5C6.69347 29.5 7.83807 29.0259 8.68198 28.182C9.52589 27.3381 10 26.1935 10 25C10 23.8065 9.52589 22.6619 8.68198 21.818C7.83807 20.9741 6.69347 20.5 5.5 20.5C4.30653 20.5 3.16193 20.9741 2.31802 21.818C1.47411 22.6619 1 23.8065 1 25C1 26.1935 1.47411 27.3381 2.31802 28.182C3.16193 29.0259 4.30653 29.5 5.5 29.5ZM26.5 31C27.6935 31 28.8381 30.5259 29.682 29.682C30.5259 28.8381 31 27.6935 31 26.5C31 25.3065 30.5259 24.1619 29.682 23.318C28.8381 22.4741 27.6935 22 26.5 22C25.3065 22 24.1619 22.4741 23.318 23.318C22.4741 24.1619 22 25.3065 22 26.5C22 27.6935 22.4741 28.8381 23.318 29.682C24.1619 30.5259 25.3065 31 26.5 31ZM14.5 19C16.0913 19 17.6174 18.3679 18.7426 17.2426C19.8679 16.1174 20.5 14.5913 20.5 13C20.5 11.4087 19.8679 9.88258 18.7426 8.75736C17.6174 7.63214 16.0913 7 14.5 7C12.9087 7 11.3826 7.63214 10.2574 8.75736C9.13214 9.88258 8.5 11.4087 8.5 13C8.5 14.5913 9.13214 16.1174 10.2574 17.2426C11.3826 18.3679 12.9087 19 14.5 19ZM23.5 7C24.2956 7 25.0587 6.68393 25.6213 6.12132C26.1839 5.55871 26.5 4.79565 26.5 4C26.5 3.20435 26.1839 2.44129 25.6213 1.87868C25.0587 1.31607 24.2956 1 23.5 1C22.7044 1 21.9413 1.31607 21.3787 1.87868C20.8161 2.44129 20.5 3.20435 20.5 4C20.5 4.79565 20.8161 5.55871 21.3787 6.12132C21.9413 6.68393 22.7044 7 23.5 7Z" stroke="#292D32" stroke-width="1.5" stroke-linecap="round" stroke-linejoin="round"/>
<path d="M6.25 6.25L9.25 9.25M20.5 7L19 8.5M23.5 23.125L19 17.5M8.5 21.25L11.5 18.25" stroke="#292D32" stroke-width="1.5" stroke-linecap="round" stroke-linejoin="round"/>
</svg>
