<svg width="32" height="32" viewBox="0 0 32 32" fill="none" xmlns="http://www.w3.org/2000/svg">
<g clip-path="url(#clip0_213_7261)">
<path d="M23.2472 25.0522H15.6677L10.1908 30.5333C9.56171 31.1623 8.77949 31.4768 7.8441 31.4768C6.90872 31.4768 6.12718 31.1623 5.49949 30.5333L1.47897 26.5127C0.849915 25.8837 0.535385 25.1001 0.535385 24.162C0.535385 23.2225 0.849915 22.4389 1.47897 21.8112L6.94769 16.3835V8.76505L23.2472 25.0522ZM18.281 23.0009L8.99897 13.7189V17.2061L2.93128 23.2738C2.6947 23.5104 2.57641 23.8064 2.57641 24.162C2.57641 24.5175 2.6947 24.8136 2.93128 25.0502L6.9518 29.0707C7.18838 29.3059 7.48376 29.4235 7.83795 29.4235C8.19351 29.4235 8.48957 29.3052 8.72616 29.0686L14.7938 23.0009H18.281ZM8.09846 2.01634C11.2834 0.375311 14.6291 -0.207937 18.1354 0.266593C21.6431 0.741123 24.6585 2.24061 27.1815 4.76505C29.7074 7.2895 31.2075 10.3049 31.6821 13.8112C32.1566 17.3189 31.5733 20.6652 29.9323 23.8502L28.3795 22.3343C29.6814 19.6102 30.0944 16.776 29.6185 13.8317C29.1439 10.8874 27.8448 8.35343 25.721 6.22967C23.5959 4.10454 21.0612 2.80471 18.1169 2.33018C15.1726 1.85429 12.3385 2.26728 9.61436 3.56916L8.09846 2.01634ZM13.479 7.39685C15.0858 7.05223 16.6701 7.07069 18.2318 7.45223C19.7949 7.83377 21.1494 8.59753 22.2954 9.74351C23.4427 10.8895 24.2051 12.242 24.5826 13.801C24.96 15.3599 24.9627 16.9292 24.5908 18.5086L22.841 16.7568C22.893 15.7175 22.7576 14.7179 22.4349 13.7579C22.1135 12.7965 21.5836 11.9459 20.8451 11.2061C20.0971 10.4594 19.2424 9.91651 18.281 9.57736C17.321 9.23822 16.3173 9.12198 15.2697 9.22864L13.479 7.39685Z" fill="#292D32"/>
</g>
<defs>
<clipPath id="clip0_213_7261">
<rect width="32" height="32" fill="white"/>
</clipPath>
</defs>
</svg>
